<mxfile host="app.diagrams.net" modified="2023-09-18T01:55:07.783Z" agent="Mozilla/5.0 (X11; Ubuntu; Linux x86_64; rv:109.0) Gecko/20100101 Firefox/117.0" etag="n1iOsO4l5y9X4eshXB_n" version="21.7.5" type="github">
  <diagram id="C5RBs43oDa-KdzZeNtuy" name="Page-1">
    <mxGraphModel dx="808" dy="483" grid="1" gridSize="10" guides="1" tooltips="1" connect="1" arrows="1" fold="1" page="1" pageScale="1" pageWidth="827" pageHeight="1169" math="0" shadow="0">
      <root>
        <mxCell id="WIyWlLk6GJQsqaUBKTNV-0" />
        <mxCell id="WIyWlLk6GJQsqaUBKTNV-1" parent="WIyWlLk6GJQsqaUBKTNV-0" />
        <mxCell id="E0GmgQP-KoGzZXv8lp-d-8" style="edgeStyle=orthogonalEdgeStyle;rounded=0;orthogonalLoop=1;jettySize=auto;html=1;entryX=0;entryY=0.5;entryDx=0;entryDy=0;" edge="1" parent="WIyWlLk6GJQsqaUBKTNV-1" source="E0GmgQP-KoGzZXv8lp-d-9" target="E0GmgQP-KoGzZXv8lp-d-11">
          <mxGeometry relative="1" as="geometry" />
        </mxCell>
        <mxCell id="E0GmgQP-KoGzZXv8lp-d-9" value="&lt;div&gt;Start&lt;/div&gt;&lt;div&gt;encoderCallback&lt;br&gt;&lt;/div&gt;" style="ellipse;whiteSpace=wrap;html=1;" vertex="1" parent="WIyWlLk6GJQsqaUBKTNV-1">
          <mxGeometry y="50" width="120" height="80" as="geometry" />
        </mxCell>
        <mxCell id="E0GmgQP-KoGzZXv8lp-d-10" value="" style="edgeStyle=orthogonalEdgeStyle;rounded=0;orthogonalLoop=1;jettySize=auto;html=1;" edge="1" parent="WIyWlLk6GJQsqaUBKTNV-1" source="E0GmgQP-KoGzZXv8lp-d-11" target="E0GmgQP-KoGzZXv8lp-d-14">
          <mxGeometry relative="1" as="geometry" />
        </mxCell>
        <mxCell id="E0GmgQP-KoGzZXv8lp-d-13" value="" style="edgeStyle=orthogonalEdgeStyle;rounded=0;orthogonalLoop=1;jettySize=auto;html=1;" edge="1" parent="WIyWlLk6GJQsqaUBKTNV-1" source="E0GmgQP-KoGzZXv8lp-d-14" target="E0GmgQP-KoGzZXv8lp-d-15">
          <mxGeometry relative="1" as="geometry" />
        </mxCell>
        <mxCell id="E0GmgQP-KoGzZXv8lp-d-14" value="Get timer capture compare register and stores in T1" style="whiteSpace=wrap;html=1;" vertex="1" parent="WIyWlLk6GJQsqaUBKTNV-1">
          <mxGeometry x="354" y="60" width="120" height="60" as="geometry" />
        </mxCell>
        <mxCell id="E0GmgQP-KoGzZXv8lp-d-17" value="" style="edgeStyle=orthogonalEdgeStyle;rounded=0;orthogonalLoop=1;jettySize=auto;html=1;" edge="1" parent="WIyWlLk6GJQsqaUBKTNV-1" source="E0GmgQP-KoGzZXv8lp-d-15" target="E0GmgQP-KoGzZXv8lp-d-16">
          <mxGeometry relative="1" as="geometry" />
        </mxCell>
        <mxCell id="E0GmgQP-KoGzZXv8lp-d-15" value="Set overclock variable to 0" style="whiteSpace=wrap;html=1;" vertex="1" parent="WIyWlLk6GJQsqaUBKTNV-1">
          <mxGeometry x="520" y="60" width="120" height="60" as="geometry" />
        </mxCell>
        <mxCell id="E0GmgQP-KoGzZXv8lp-d-46" style="edgeStyle=orthogonalEdgeStyle;rounded=0;orthogonalLoop=1;jettySize=auto;html=1;entryX=0.5;entryY=0;entryDx=0;entryDy=0;" edge="1" parent="WIyWlLk6GJQsqaUBKTNV-1" source="E0GmgQP-KoGzZXv8lp-d-16" target="E0GmgQP-KoGzZXv8lp-d-45">
          <mxGeometry relative="1" as="geometry" />
        </mxCell>
        <mxCell id="E0GmgQP-KoGzZXv8lp-d-16" value="Set state to DONE" style="whiteSpace=wrap;html=1;" vertex="1" parent="WIyWlLk6GJQsqaUBKTNV-1">
          <mxGeometry x="690" y="60" width="120" height="60" as="geometry" />
        </mxCell>
        <mxCell id="E0GmgQP-KoGzZXv8lp-d-18" value="" style="group" vertex="1" connectable="0" parent="WIyWlLk6GJQsqaUBKTNV-1">
          <mxGeometry x="180" y="40" width="110" height="100" as="geometry" />
        </mxCell>
        <mxCell id="E0GmgQP-KoGzZXv8lp-d-11" value="" style="rhombus;whiteSpace=wrap;html=1;" vertex="1" parent="E0GmgQP-KoGzZXv8lp-d-18">
          <mxGeometry width="110" height="100" as="geometry" />
        </mxCell>
        <mxCell id="E0GmgQP-KoGzZXv8lp-d-12" value="Is state IDLE OR DONE?" style="text;html=1;strokeColor=none;fillColor=none;align=center;verticalAlign=middle;whiteSpace=wrap;rounded=0;" vertex="1" parent="E0GmgQP-KoGzZXv8lp-d-18">
          <mxGeometry x="25" y="35" width="60" height="30" as="geometry" />
        </mxCell>
        <mxCell id="E0GmgQP-KoGzZXv8lp-d-22" value="" style="edgeStyle=orthogonalEdgeStyle;rounded=0;orthogonalLoop=1;jettySize=auto;html=1;" edge="1" parent="WIyWlLk6GJQsqaUBKTNV-1" source="E0GmgQP-KoGzZXv8lp-d-19" target="E0GmgQP-KoGzZXv8lp-d-21">
          <mxGeometry relative="1" as="geometry" />
        </mxCell>
        <mxCell id="E0GmgQP-KoGzZXv8lp-d-19" value="Get timer capture compare register and stores in T2" style="whiteSpace=wrap;html=1;" vertex="1" parent="WIyWlLk6GJQsqaUBKTNV-1">
          <mxGeometry x="175" y="180" width="120" height="60" as="geometry" />
        </mxCell>
        <mxCell id="E0GmgQP-KoGzZXv8lp-d-20" value="" style="edgeStyle=orthogonalEdgeStyle;rounded=0;orthogonalLoop=1;jettySize=auto;html=1;" edge="1" parent="WIyWlLk6GJQsqaUBKTNV-1" source="E0GmgQP-KoGzZXv8lp-d-11" target="E0GmgQP-KoGzZXv8lp-d-19">
          <mxGeometry relative="1" as="geometry" />
        </mxCell>
        <mxCell id="E0GmgQP-KoGzZXv8lp-d-26" style="edgeStyle=orthogonalEdgeStyle;rounded=0;orthogonalLoop=1;jettySize=auto;html=1;entryX=0.5;entryY=0;entryDx=0;entryDy=0;" edge="1" parent="WIyWlLk6GJQsqaUBKTNV-1" source="E0GmgQP-KoGzZXv8lp-d-21" target="E0GmgQP-KoGzZXv8lp-d-24">
          <mxGeometry relative="1" as="geometry" />
        </mxCell>
        <mxCell id="E0GmgQP-KoGzZXv8lp-d-21" value="&lt;div&gt;Evaluate how much timer ticks have been done in this period&lt;br&gt;&lt;/div&gt;" style="whiteSpace=wrap;html=1;" vertex="1" parent="WIyWlLk6GJQsqaUBKTNV-1">
          <mxGeometry x="175" y="280" width="120" height="60" as="geometry" />
        </mxCell>
        <mxCell id="E0GmgQP-KoGzZXv8lp-d-23" value="" style="group" vertex="1" connectable="0" parent="WIyWlLk6GJQsqaUBKTNV-1">
          <mxGeometry x="180" y="380" width="110" height="100" as="geometry" />
        </mxCell>
        <mxCell id="E0GmgQP-KoGzZXv8lp-d-24" value="" style="rhombus;whiteSpace=wrap;html=1;" vertex="1" parent="E0GmgQP-KoGzZXv8lp-d-23">
          <mxGeometry width="110" height="100" as="geometry" />
        </mxCell>
        <mxCell id="E0GmgQP-KoGzZXv8lp-d-25" value="Are ticks &amp;gt; 1?" style="text;html=1;strokeColor=none;fillColor=none;align=center;verticalAlign=middle;whiteSpace=wrap;rounded=0;" vertex="1" parent="E0GmgQP-KoGzZXv8lp-d-23">
          <mxGeometry x="25" y="35" width="60" height="30" as="geometry" />
        </mxCell>
        <mxCell id="E0GmgQP-KoGzZXv8lp-d-32" value="" style="edgeStyle=orthogonalEdgeStyle;rounded=0;orthogonalLoop=1;jettySize=auto;html=1;" edge="1" parent="WIyWlLk6GJQsqaUBKTNV-1" source="E0GmgQP-KoGzZXv8lp-d-27" target="E0GmgQP-KoGzZXv8lp-d-31">
          <mxGeometry relative="1" as="geometry" />
        </mxCell>
        <mxCell id="E0GmgQP-KoGzZXv8lp-d-27" value="Calculate rotation frequency" style="whiteSpace=wrap;html=1;" vertex="1" parent="WIyWlLk6GJQsqaUBKTNV-1">
          <mxGeometry x="370" y="395" width="135" height="70" as="geometry" />
        </mxCell>
        <mxCell id="E0GmgQP-KoGzZXv8lp-d-28" value="" style="edgeStyle=orthogonalEdgeStyle;rounded=0;orthogonalLoop=1;jettySize=auto;html=1;" edge="1" parent="WIyWlLk6GJQsqaUBKTNV-1" source="E0GmgQP-KoGzZXv8lp-d-24" target="E0GmgQP-KoGzZXv8lp-d-27">
          <mxGeometry relative="1" as="geometry" />
        </mxCell>
        <mxCell id="E0GmgQP-KoGzZXv8lp-d-34" value="" style="edgeStyle=orthogonalEdgeStyle;rounded=0;orthogonalLoop=1;jettySize=auto;html=1;" edge="1" parent="WIyWlLk6GJQsqaUBKTNV-1" source="E0GmgQP-KoGzZXv8lp-d-31" target="E0GmgQP-KoGzZXv8lp-d-33">
          <mxGeometry relative="1" as="geometry" />
        </mxCell>
        <mxCell id="E0GmgQP-KoGzZXv8lp-d-31" value="Calculate velocity" style="whiteSpace=wrap;html=1;" vertex="1" parent="WIyWlLk6GJQsqaUBKTNV-1">
          <mxGeometry x="592.5" y="400" width="120" height="60" as="geometry" />
        </mxCell>
        <mxCell id="E0GmgQP-KoGzZXv8lp-d-38" value="" style="edgeStyle=orthogonalEdgeStyle;rounded=0;orthogonalLoop=1;jettySize=auto;html=1;entryX=1;entryY=0.5;entryDx=0;entryDy=0;" edge="1" parent="WIyWlLk6GJQsqaUBKTNV-1" source="E0GmgQP-KoGzZXv8lp-d-33" target="E0GmgQP-KoGzZXv8lp-d-39">
          <mxGeometry relative="1" as="geometry">
            <mxPoint x="492.5" y="570" as="targetPoint" />
          </mxGeometry>
        </mxCell>
        <mxCell id="E0GmgQP-KoGzZXv8lp-d-33" value="Set state as IDLE" style="whiteSpace=wrap;html=1;" vertex="1" parent="WIyWlLk6GJQsqaUBKTNV-1">
          <mxGeometry x="592.5" y="540" width="120" height="60" as="geometry" />
        </mxCell>
        <mxCell id="E0GmgQP-KoGzZXv8lp-d-39" value="End encoderCallback" style="ellipse;whiteSpace=wrap;html=1;" vertex="1" parent="WIyWlLk6GJQsqaUBKTNV-1">
          <mxGeometry x="377.5" y="530" width="120" height="80" as="geometry" />
        </mxCell>
        <mxCell id="E0GmgQP-KoGzZXv8lp-d-40" value="Yes" style="text;html=1;align=center;verticalAlign=middle;resizable=0;points=[];autosize=1;strokeColor=none;fillColor=none;" vertex="1" parent="WIyWlLk6GJQsqaUBKTNV-1">
          <mxGeometry x="300" y="398" width="40" height="30" as="geometry" />
        </mxCell>
        <mxCell id="E0GmgQP-KoGzZXv8lp-d-41" value="IDDLE" style="text;html=1;align=center;verticalAlign=middle;resizable=0;points=[];autosize=1;strokeColor=none;fillColor=none;" vertex="1" parent="WIyWlLk6GJQsqaUBKTNV-1">
          <mxGeometry x="285" y="50" width="60" height="30" as="geometry" />
        </mxCell>
        <mxCell id="E0GmgQP-KoGzZXv8lp-d-42" value="DONE" style="text;html=1;align=center;verticalAlign=middle;resizable=0;points=[];autosize=1;strokeColor=none;fillColor=none;" vertex="1" parent="WIyWlLk6GJQsqaUBKTNV-1">
          <mxGeometry x="240" y="140" width="60" height="30" as="geometry" />
        </mxCell>
        <mxCell id="E0GmgQP-KoGzZXv8lp-d-45" value="End encoderCallback" style="ellipse;whiteSpace=wrap;html=1;" vertex="1" parent="WIyWlLk6GJQsqaUBKTNV-1">
          <mxGeometry x="690" y="210" width="120" height="80" as="geometry" />
        </mxCell>
        <mxCell id="E0GmgQP-KoGzZXv8lp-d-52" style="edgeStyle=orthogonalEdgeStyle;rounded=0;orthogonalLoop=1;jettySize=auto;html=1;entryX=0;entryY=0.5;entryDx=0;entryDy=0;" edge="1" parent="WIyWlLk6GJQsqaUBKTNV-1" source="E0GmgQP-KoGzZXv8lp-d-49" target="E0GmgQP-KoGzZXv8lp-d-39">
          <mxGeometry relative="1" as="geometry" />
        </mxCell>
        <mxCell id="E0GmgQP-KoGzZXv8lp-d-49" value="Get last velocity value" style="whiteSpace=wrap;html=1;" vertex="1" parent="WIyWlLk6GJQsqaUBKTNV-1">
          <mxGeometry x="175" y="540" width="120" height="60" as="geometry" />
        </mxCell>
        <mxCell id="E0GmgQP-KoGzZXv8lp-d-50" value="" style="edgeStyle=orthogonalEdgeStyle;rounded=0;orthogonalLoop=1;jettySize=auto;html=1;" edge="1" parent="WIyWlLk6GJQsqaUBKTNV-1" source="E0GmgQP-KoGzZXv8lp-d-24" target="E0GmgQP-KoGzZXv8lp-d-49">
          <mxGeometry relative="1" as="geometry" />
        </mxCell>
        <mxCell id="E0GmgQP-KoGzZXv8lp-d-51" value="No" style="text;html=1;align=center;verticalAlign=middle;resizable=0;points=[];autosize=1;strokeColor=none;fillColor=none;" vertex="1" parent="WIyWlLk6GJQsqaUBKTNV-1">
          <mxGeometry x="245" y="490" width="40" height="30" as="geometry" />
        </mxCell>
      </root>
    </mxGraphModel>
  </diagram>
</mxfile>
